<?xml version="1.0" encoding="utf-8" standalone="yes"?><!-- Generator: Adobe Illustrator 24.3.0, SVG Export Plug-In . SVG Version: 6.00 Build 0)  --><svg xmlns="http://www.w3.org/2000/svg" xmlns:xlink="http://www.w3.org/1999/xlink" version="1.2" viewBox="0 0 1000 1000" xml:space="preserve" baseProfile="tiny-ps"><title>Xaeon</title><linearGradient id="SVGID_1_" gradientUnits="userSpaceOnUse" x1="133.8892" y1="441.3484" x2="457.2607" y2="441.3484"><stop offset="0" stop-color="#5D25DE"></stop><stop offset="1" stop-color="#C7A9F9"></stop></linearGradient><polygon points="457.26,500.31 343.39,431.77 133.89,555.41 133.89,601.03 341.84,476.38 383.44,500.31 133.89,641.69   133.89,689.54 " fill="url(#SVGID_1_)"></polygon><linearGradient id="SVGID_2_" gradientUnits="userSpaceOnUse" x1="134.2273" y1="583.6639" x2="317.0738" y2="583.6639"><stop offset="0" stop-color="#343ED9"></stop><stop offset="0.7579" stop-color="#5A4EE0"></stop></linearGradient><polygon points="134.23,525.67 317.07,419.59 134.23,311 134.23,358.44 242.81,418.34 134.23,482 " fill="url(#SVGID_2_)"></polygon><linearGradient id="SVGID_3_" gradientUnits="userSpaceOnUse" x1="543.0807" y1="562.1087" x2="866.4522" y2="562.1087"><stop offset="0" stop-color="#C29FF7"></stop><stop offset="0.9972" stop-color="#4D3FDD"></stop></linearGradient><polygon points="543.08,500.24 656.95,568.78 866.45,445.14 866.45,399.54 658.49,524.17 616.91,500.24 866.45,358.84   866.45,311 " fill="url(#SVGID_3_)"></polygon><linearGradient id="SVGID_4_" gradientUnits="userSpaceOnUse" x1="683.2677" y1="421.1956" x2="866.1142" y2="421.1956"><stop offset="0" stop-color="#652DE0"></stop><stop offset="0.9972" stop-color="#5834DE"></stop></linearGradient><polygon points="866.11,473.47 683.27,579.55 866.11,688.14 866.11,640.71 757.53,580.8 866.11,517.15 " fill="url(#SVGID_4_)"></polygon><linearGradient id="SVGID_5_" gradientUnits="userSpaceOnUse" x1="421.6943" y1="89.8982" x2="421.6943" y2="464.5564"><stop offset="0" stop-color="#A427EA"></stop><stop offset="0.9041" stop-color="#D19AF9"></stop></linearGradient><polygon points="478.73,537.44 362.45,601.8 364.78,845.05 404.27,867.85 400.31,625.44 441.82,601.38 439.52,888.2   480.94,912.1 " fill="url(#SVGID_5_)"></polygon><linearGradient id="SVGID_6_" gradientUnits="userSpaceOnUse" x1="153.2845" y1="277.8095" x2="339.1987" y2="277.8095"><stop offset="0" stop-color="#9636E9"></stop><stop offset="1" stop-color="#CE83F8"></stop></linearGradient><polygon points="339.2,829.89 338.75,618.49 153.28,722.56 194.37,746.27 300.53,682.19 301.37,808.05 " fill="url(#SVGID_6_)"></polygon><linearGradient id="SVGID_7_" gradientUnits="userSpaceOnUse" x1="578.6472" y1="913.5652" x2="578.6472" y2="538.8945"><stop offset="0.1788" stop-color="#79B8EB"></stop><stop offset="0.9674" stop-color="#DAD1FF"></stop></linearGradient><polygon points="521.59,463.11 637.89,398.75 635.56,155.5 596.06,132.7 600.03,375.11 558.51,399.17 560.82,112.35   519.4,88.43 " fill="url(#SVGID_7_)"></polygon><linearGradient id="SVGID_8_" gradientUnits="userSpaceOnUse" x1="659.9282" y1="726.355" x2="845.8424" y2="726.355"><stop offset="0" stop-color="#C4EBFC"></stop><stop offset="0.9339" stop-color="#6D8DE7"></stop></linearGradient><polygon points="659.93,169.96 660.38,381.33 845.84,277.29 804.76,253.58 698.59,317.66 697.75,191.8 " fill="url(#SVGID_8_)"></polygon><linearGradient id="SVGID_9_" gradientUnits="userSpaceOnUse" x1="518.9274" y1="338.8564" x2="846.9192" y2="338.8564"><stop offset="0" stop-color="#C38EF7"></stop><stop offset="0.9041" stop-color="#631ADD"></stop></linearGradient><polygon points="521.34,536.89 518.93,669.78 730.75,789.39 770.25,766.57 558.34,648.81 558.26,600.83 805.5,746.23   846.92,722.33 " fill="url(#SVGID_9_)"></polygon><linearGradient id="SVGID_10_" gradientUnits="userSpaceOnUse" x1="477.162" y1="242.2594" x2="647.2062" y2="118.7151"><stop offset="0" stop-color="#C38EF7"></stop><stop offset="0.9041" stop-color="#631ADD"></stop></linearGradient><polygon points="704.84,803.96 521.54,698.65 518.93,911.29 560.01,887.59 557.59,763.59 667.02,825.81 " fill="url(#SVGID_10_)"></polygon><linearGradient id="SVGID_11_" gradientUnits="userSpaceOnUse" x1="191.922" y1="782.7904" x2="501.6384" y2="573.8841"><stop offset="0.1415" stop-color="#3855DB"></stop><stop offset="1" stop-color="#D0C4FF"></stop></linearGradient><polygon points="478.38,462.59 480.8,329.72 268.98,210.1 229.48,232.92 441.4,350.69 441.47,398.67 194.24,253.26   152.82,277.18 " fill="url(#SVGID_11_)"></polygon><linearGradient id="SVGID_12_" gradientUnits="userSpaceOnUse" x1="370.1723" y1="877.0842" x2="507.9452" y2="729.3408"><stop offset="7.448560e-03" stop-color="#2C56D9"></stop><stop offset="1" stop-color="#A6CAFF"></stop></linearGradient><polygon points="293.68,196.24 476.97,301.54 479.59,88.9 438.52,112.61 440.92,236.6 331.51,174.39 " fill="url(#SVGID_12_)"></polygon></svg>